<svg width="80" height="72" viewBox="0 0 80 72" fill="none" xmlns="http://www.w3.org/2000/svg">
<path d="M39.8319 71.6974C38.6369 71.6974 37.4924 71.4823 36.3984 71.0521C35.3043 70.6219 34.3245 69.974 33.4588 69.1083L6.77142 42.3214C4.44789 39.9978 2.73911 37.3424 1.64506 34.355C0.551008 31.3676 0.00265546 28.2474 0 24.9945C0 18.1567 2.22395 12.2815 6.67184 7.3689C11.1197 2.4563 16.663 0 23.3016 0C26.4882 0 29.4928 0.630671 32.3156 1.89201C35.1383 3.15336 37.6438 4.9126 39.8319 7.16974C41.9562 4.9126 44.4298 3.15336 47.2525 1.89201C50.0753 0.630671 53.0786 0 56.2625 0C62.9012 0 68.4617 2.4563 72.9441 7.3689C77.4265 12.2815 79.6664 18.1235 79.6637 24.8949C79.6637 28.1479 79.0995 31.268 77.9709 34.2554C76.8423 37.2428 75.1495 39.8983 72.8923 42.2218L46.1054 69.1083C45.2424 69.9713 44.2798 70.6193 43.2176 71.0521C42.1554 71.4849 41.0268 71.7 39.8319 71.6974ZM43.8151 19.9159C44.4789 19.9159 45.1096 20.0819 45.7071 20.4138C46.3046 20.7458 46.7693 21.1773 47.1012 21.7084L53.8726 31.8655H70.4028C70.8675 30.7369 71.2167 29.5924 71.4504 28.432C71.6841 27.2716 71.7996 26.0925 71.797 24.8949C71.6642 20.3143 70.1373 16.3802 67.2163 13.0927C64.2953 9.80528 60.644 8.16288 56.2625 8.16553C54.2045 8.16553 52.2302 8.56385 50.3395 9.36049C48.4488 10.1571 46.8051 11.3189 45.4083 12.8458L42.7197 15.7336C42.3878 16.1319 41.9562 16.4479 41.4251 16.6816C40.8941 16.9153 40.363 17.0308 39.8319 17.0281C39.3008 17.0255 38.7697 16.91 38.2386 16.6816C37.7075 16.4532 37.2428 16.1372 36.8445 15.7336L34.1558 12.8458C32.7617 11.3189 31.1352 10.1239 29.2764 9.26091C27.4176 8.39789 25.426 7.96637 23.3016 7.96637C18.9201 7.96637 15.2689 9.6433 12.3479 12.9971C9.42688 16.351 7.96637 20.3169 7.96637 24.8949C7.96637 26.0899 8.06595 27.2689 8.26511 28.432C8.46427 29.5951 8.7962 30.7396 9.26091 31.8655H27.8823C28.5462 31.8655 29.1768 32.0315 29.7743 32.3634C30.3718 32.6953 30.8365 33.1268 31.1684 33.6579L34.6537 38.8361L40.031 22.7042C40.2966 21.9075 40.7772 21.2437 41.4729 20.7126C42.1687 20.1815 42.9494 19.9159 43.8151 19.9159ZM45.01 32.8613L39.6327 48.9932C39.3672 49.7898 38.8693 50.4537 38.139 50.9848C37.4088 51.5159 36.6121 51.7814 35.7491 51.7814C35.0852 51.7814 34.4546 51.6155 33.8571 51.2835C33.2596 50.9516 32.7949 50.5201 32.463 49.989L25.6916 39.8319H15.5344L39.1348 63.4323C39.2676 63.565 39.3844 63.6487 39.4853 63.6832C39.5862 63.7177 39.7018 63.7337 39.8319 63.731C39.962 63.7283 40.0788 63.7124 40.1824 63.6832C40.286 63.654 40.4015 63.5703 40.5289 63.4323L64.0297 39.8319H51.7814C51.1176 39.8319 50.4869 39.6659 49.8894 39.334C49.2919 39.002 48.794 38.5705 48.3957 38.0394L45.01 32.8613Z" fill="#FAF4EE"/>
</svg>
