<svg width="73" height="73" viewBox="0 0 73 73" fill="none" xmlns="http://www.w3.org/2000/svg">
<path d="M5.32812 37.04C9.35642 37.6924 12.8071 38.5847 15.71 39.6924C19.7002 41.215 22.778 43.3007 25.0889 45.8779C27.3973 48.4526 29.1517 51.7652 30.2568 55.958C31.0566 58.9923 31.5928 62.55 31.8408 66.6572C28.7341 65.9301 25.9036 64.9366 23.3359 63.6875C19.3901 61.7679 16.1067 59.2952 13.4307 56.2803C10.7427 53.2518 8.67447 49.7247 7.23535 45.6543C6.30138 43.0126 5.66087 40.1456 5.32812 37.04ZM67.709 36.7324C67.0297 43.2574 64.843 48.8873 61.2197 53.7393C57.7853 58.3383 53.37 61.8723 47.874 64.3252C47.7085 62.2459 47.4903 60.2421 47.2158 58.3154C46.7775 55.2387 46.1372 52.2778 45.291 49.4365C47.6159 45.9749 50.6367 43.0863 54.4043 40.7578C57.5966 38.7849 61.9672 37.3775 67.709 36.7324ZM36.5 7.31641C36.8773 7.86186 37.2498 8.42171 37.6162 8.99609C39.0362 11.2218 40.303 13.5469 41.416 15.9736C42.5362 18.4161 43.4882 20.8948 44.2734 23.4092C44.7158 24.8259 45.0795 26.205 45.3721 27.5459C43.132 28.8946 41.0695 30.3735 39.1943 31.9883C38.222 32.8257 37.3093 33.6843 36.4619 34.5654C35.6363 33.7196 34.7513 32.89 33.8086 32.0781C31.9316 30.4617 29.8648 28.9667 27.6191 27.5859C27.9136 26.2315 28.2807 24.8375 28.7266 23.4043C29.5086 20.8906 30.4591 18.4155 31.5801 15.9785C32.6962 13.5521 33.9652 11.2245 35.3867 8.99414C35.7524 8.42036 36.1237 7.861 36.5 7.31641Z" stroke="#FAF4EE" stroke-width="9"/>
</svg>
