<svg width="61" height="77" viewBox="0 0 61 77" fill="none" xmlns="http://www.w3.org/2000/svg">
<path d="M30.5 1.25C38.3189 1.25004 45.2092 3.99796 51.1406 9.46484C57.1156 14.972 60.0781 22.36 60.0732 31.5439L60.0654 32.127C59.9162 38.1667 57.4572 44.6485 52.7852 51.5566C47.9608 58.6899 40.6844 66.3801 30.9854 74.6289L30.5 75.042L30.0137 74.6289C20.317 66.3777 13.0421 58.6875 8.21777 51.5566C3.39492 44.4279 0.929241 37.7514 0.926758 31.5439L0.935547 30.6875C1.11507 21.8997 4.0766 14.7998 9.8623 9.46484C15.7914 3.99779 22.681 1.25 30.5 1.25ZM30.5 9.95605C24.6258 9.95373 19.6994 11.9655 15.6748 15.9971C11.6611 20.0177 9.63754 25.1786 9.63281 31.5439L9.6377 31.9268C9.7403 35.9021 11.4335 40.5111 14.8271 45.7754C18.2405 51.0701 23.457 56.9727 30.499 63.4863C37.5415 56.9701 42.7593 51.0681 46.1729 45.7754C49.6759 40.3438 51.3671 35.6078 51.3672 31.5439C51.3672 25.1738 49.3436 20.0135 45.3281 15.998C41.3011 11.9711 36.3745 9.95849 30.5 9.95605ZM30.502 22.8672C32.6869 22.8725 34.5738 23.6579 36.1211 25.2051C37.6685 26.7525 38.4534 28.6389 38.4561 30.8223C38.4587 33.007 37.6726 34.8945 36.1201 36.4443C34.569 37.9928 32.6835 38.7776 30.5029 38.7783H30.501L30.5 38.7793V38.7783C28.3253 38.7881 26.4392 38.0017 24.8818 36.4443C23.3237 34.8862 22.536 32.9982 22.5439 30.8203C22.5519 28.6468 23.338 26.7632 24.8799 25.208C26.4255 23.6491 28.3139 22.8619 30.502 22.8672Z" fill="#FAF4EE" stroke="#FAF4EE" stroke-width="1.5"/>
</svg>
