<svg width="82" height="82" viewBox="0 0 82 82" fill="none" xmlns="http://www.w3.org/2000/svg">
<path d="M51.2923 53.0542L54.7271 60.4401C54.7271 60.4401 70.1674 63.7187 70.1674 71.517C70.1674 77.0574 63.2979 77.0574 63.2979 77.0574H45.0033L35.9961 72.0534" stroke="#FAF4EE" stroke-width="9" stroke-linecap="round" stroke-linejoin="round"/>
<path d="M30.7076 53.0542L27.2769 60.4401C27.2769 60.4401 11.8325 63.7187 11.8325 71.517C11.8325 77.0574 18.702 77.0574 18.702 77.0574H26.9886L35.9959 72.0534L47.0047 65.0478" stroke="#FAF4EE" stroke-width="9" stroke-linecap="round" stroke-linejoin="round"/>
<path d="M4.97119 56.7454C4.97119 56.7454 13.5501 54.8999 18.6982 53.0545C23.8423 27.2018 39.2786 29.0472 41 29.0472C42.7214 29.0472 58.1578 27.2018 63.3019 53.0545C68.45 54.8959 77.0289 56.7454 77.0289 56.7454M41 21.0128C43.1235 21.0128 45.1599 20.1693 46.6614 18.6678C48.1629 17.1663 49.0064 15.1298 49.0064 13.0064C49.0064 10.883 48.1629 8.84651 46.6614 7.34502C45.1599 5.84353 43.1235 5 41 5C38.8766 5 36.8401 5.84353 35.3386 7.34502C33.8371 8.84651 32.9936 10.883 32.9936 13.0064C32.9936 15.1298 33.8371 17.1663 35.3386 18.6678C36.8401 20.1693 38.8766 21.0128 41 21.0128Z" stroke="#FAF4EE" stroke-width="9" stroke-linecap="round" stroke-linejoin="round"/>
</svg>
